<svg width="58" height="54" viewBox="0 0 58 54" fill="none" xmlns="http://www.w3.org/2000/svg">
<rect x="0.653809" y="0.5" width="56.6923" height="52.6267" rx="7.5" stroke="#F1F1F1"/>
<path d="M36.861 13H21.6203C17.4117 13 14 16.1713 14 20.0833V34.25C14 38.162 17.4117 41.3333 21.6203 41.3333H36.861C41.0696 41.3333 44.4814 38.162 44.4814 34.25V20.0833C44.4814 16.1713 41.0696 13 36.861 13Z" stroke="#F5F6FA" stroke-width="3.17006" stroke-linecap="round" stroke-linejoin="round"/>
<path d="M35.385 26.1074C35.5731 27.2864 35.3565 28.4905 34.7659 29.5485C34.1753 30.6064 33.2409 31.4644 32.0955 32.0002C30.9502 32.5361 29.6522 32.7226 28.3862 32.5333C27.1202 32.3439 25.9507 31.7883 25.044 30.9455C24.1373 30.1027 23.5396 29.0156 23.3359 27.8388C23.1321 26.6621 23.3328 25.4556 23.9093 24.3909C24.4858 23.3263 25.4088 22.4577 26.5469 21.9087C27.6851 21.3598 28.9805 21.1584 30.2489 21.3332C31.5427 21.5115 32.7405 22.072 33.6654 22.9316C34.5903 23.7913 35.1932 24.9047 35.385 26.1074Z" stroke="#F5F6FA" stroke-width="3.17006" stroke-linecap="round" stroke-linejoin="round"/>
<path d="M37.6711 19.2083H37.6856" stroke="#F5F6FA" stroke-width="3.17006" stroke-linecap="round" stroke-linejoin="round"/>
</svg>
