<svg width="58" height="54" viewBox="0 0 58 54" fill="none" xmlns="http://www.w3.org/2000/svg">
<rect x="0.807739" y="0.5" width="56.6923" height="52.6267" rx="7.5" stroke="#F1F1F1"/>
<path d="M44.0833 33.445V37.07C44.085 37.4065 44.0018 37.7396 43.8391 38.0479C43.6764 38.3563 43.4377 38.633 43.1385 38.8605C42.8392 39.088 42.4858 39.2612 42.1011 39.3691C41.7164 39.4769 41.3087 39.5169 40.9042 39.4866C36.4166 39.0826 32.106 37.812 28.3188 35.777C24.7952 33.9218 21.8078 31.4466 19.5688 28.527C17.1041 25.3747 15.5704 21.7857 15.0917 18.0508C15.0552 17.7166 15.1032 17.3799 15.2324 17.0619C15.3616 16.744 15.5694 16.4518 15.8424 16.204C16.1154 15.9562 16.4476 15.7582 16.818 15.6227C17.1884 15.4871 17.5888 15.4169 17.9938 15.4166H22.3688C23.0765 15.4108 23.7626 15.6185 24.2992 16.0009C24.8359 16.3833 25.1864 16.9143 25.2854 17.495C25.4701 18.655 25.8125 19.7941 26.3063 20.8904C26.5025 21.3229 26.5449 21.7929 26.4286 22.2448C26.3123 22.6966 26.0421 23.1114 25.65 23.44L23.7979 24.9745C25.8739 27.9997 28.8969 30.5044 32.5479 32.2245L34.4 30.69C34.7965 30.3651 35.2971 30.1412 35.8425 30.0448C36.3878 29.9484 36.9551 29.9836 37.4771 30.1462C38.8002 30.5553 40.1749 30.839 41.575 30.992C42.2834 31.0748 42.9304 31.3705 43.3929 31.8228C43.8553 32.275 44.1011 32.8524 44.0833 33.445Z" stroke="#F5F6FA" stroke-width="2" stroke-linecap="round" stroke-linejoin="round"/>
</svg>
